<svg id="Layer_1" data-name="Layer 1" xmlns="http://www.w3.org/2000/svg" viewBox="0 0 48 48"><defs><style>.cls-1{fill:#edebf2;}.cls-2{fill:#e8968e;}.cls-3{fill:#2c435e;}.cls-4{fill:#d3d1db;}.cls-5{fill:#c6c3d8;}.cls-6{fill:#3b506d;}</style></defs><title>rabbit, bunny, animal, wildlife, mammal, rodent</title><path class="cls-1" d="M33.79,9.32V25H26V17.15a7.73,7.73,0,0,1,2-5.17,3.66,3.66,0,0,1,.33-.37,8,8,0,0,1,3.58-2A8.48,8.48,0,0,1,33.79,9.32Z"/><path class="cls-2" d="M31.83,9.56V25H27.92V12a3.66,3.66,0,0,1,.33-.37A8,8,0,0,1,31.83,9.56Z"/><path class="cls-3" d="M47.5,36.74c0,2.42-4.31,4.55-10.81,5.76A69.8,69.8,0,0,1,24,43.59,69.8,69.8,0,0,1,11.31,42.5C4.81,41.29.5,39.16.5,36.74.5,33,11,29.88,24,29.88S47.5,33,47.5,36.74Z"/><path class="cls-1" d="M18.12,2.46h0A3.92,3.92,0,0,1,22,6.38V25a0,0,0,0,1,0,0H14.21a0,0,0,0,1,0,0V6.38a3.92,3.92,0,0,1,3.92-3.92Z"/><path class="cls-2" d="M18.12,4.42h0a2,2,0,0,1,2,2V25a0,0,0,0,1,0,0H16.17a0,0,0,0,1,0,0V6.38A2,2,0,0,1,18.12,4.42Z"/><path class="cls-1" d="M40.65,13.42a3.92,3.92,0,0,1-3.92,3.73H26a7.82,7.82,0,0,1,7.83-7.83H36.5A4.09,4.09,0,0,1,40.65,13.42Z"/><path class="cls-4" d="M36.73,41.63a8.19,8.19,0,0,1,0,.87A69.8,69.8,0,0,1,24,43.59a77.41,77.41,0,0,1-7.83-.39c-1.37-.15-2.68-.32-3.92-.53l-.94-.17a8.19,8.19,0,0,1,0-.87c0-6.49,5.7-11.75,12.73-11.75S36.73,35.14,36.73,41.63Z"/><path class="cls-1" d="M35.75,27.92c0,4.87-5.26,6.86-11.75,6.86s-11.75-2-11.75-6.86S17.51,17.15,24,17.15,35.75,23.06,35.75,27.92Z"/><circle class="cls-3" cx="19.1" cy="26.94" r="0.98"/><circle class="cls-3" cx="28.9" cy="26.94" r="0.98"/><rect class="cls-5" x="23.02" y="30.86" width="1.96" height="3.92"/><path class="cls-6" d="M25.79,29.64a1.79,1.79,0,0,1-3.58,0C22.21,28.66,25.79,28.66,25.79,29.64Z"/><path class="cls-1" d="M12.64,39.67H12.3a3,3,0,0,0-3,2.85,2.93,2.93,0,0,0,5.83.55l1,.13h0A3.53,3.53,0,0,0,12.64,39.67Z"/><path class="cls-1" d="M35.36,39.67h.34a3,3,0,0,1,3,2.85,2.93,2.93,0,0,1-5.83.55l-1,.13h0A3.53,3.53,0,0,1,35.36,39.67Z"/></svg>